# xmcd
#
# Track frame offsets:
#	150
#	15647
#	26857
#	40250
#	52870
#	65257
#	78165
#	90150
#	103710
#	118222
#	129232
#	142797
#
# Disc length: 2039 seconds
#
# Revision: 0
# Processed by: cddbd v1.5.2PL0 Copyright (c) Steve Scherf et al.
# Submitted via: EasyCDDAExtractor 16.0.6.1
#
DISCID=8b07f50c
DTITLE=Κυριαζής Γιάννης - Το παλιό ρεμπέτικο-1975, Γ. Κυριαζής
DYEAR=1995
DGENRE=Ρεμπέτικη
TTITLE0=Είμαι παιδάκι με ψυχή [Βασίλη Τσιτσάνη]
TTITLE1=Η Ελένη η ζωντοχήρα [Γιάννη Εϊτζιρίδη]
TTITLE2=Ο ισοβίτης [Μάρκου Βαμβακάρη]
TTITLE3=Μάννα μου με σκοτώσανε [Μάρκου Βαμβακάρη]
TTITLE4=Εγώ θέλω πριγκηπέσσα [Παναγιώτη Τούντα]
TTITLE5=Τα ρούχα μου ελιώσανε [Γιάννη Κυριαζή]
TTITLE6=Το κορόϊδο [Μάρκου Βαμβακάρη]
TTITLE7=Η Βαρβάρα [Παναγιώτη Τούντα]
TTITLE8=Μάννα μου για δες, πώς έχω γίνει [Γιάννη Κυριαζή]
TTITLE9=Δε σε θέλω πια, δεν είσαι ωραία [Μάρκου Βαμβακάρη]
TTITLE10=Το μαλλιαρό σκυλάκι σου [Γιάννη Κυριαζή]
TTITLE11=Αθηναίϊσα [Γιάννη Κυριαζή]
EXTD=
EXTT0=
EXTT1=
EXTT2=
EXTT3=
EXTT4=
EXTT5=
EXTT6=
EXTT7=
EXTT8=
EXTT9=
EXTT10=
EXTT11=
PLAYORDER=
